<?xml version="1.0" encoding="UTF-8" standalone="no"?> <svg xmlns="http://www.w3.org/2000/svg" xmlns:xlink="http://www.w3.org/1999/xlink" viewBox="0 0 64 64"><defs><style>.cls-1{fill:url(#linear-gradient);}.cls-2{fill:url(#linear-gradient-2);}.cls-3{fill:url(#linear-gradient-3);}.cls-4{fill:url(#linear-gradient-4);}.cls-5{fill:url(#linear-gradient-5);}.cls-6{fill:url(#linear-gradient-6);}.cls-7{fill:url(#linear-gradient-7);}.cls-8{fill:url(#linear-gradient-8);}.cls-9{fill:url(#linear-gradient-9);}.cls-10{fill:url(#linear-gradient-10);}.cls-11{fill:url(#linear-gradient-11);}.cls-12{fill:url(#linear-gradient-12);}.cls-13{fill:url(#linear-gradient-13);}.cls-14{fill:url(#linear-gradient-14);}.cls-15{fill:url(#linear-gradient-15);}.cls-16{fill:url(#linear-gradient-16);}.cls-17{fill:url(#linear-gradient-17);}.cls-18{fill:url(#linear-gradient-18);}</style><linearGradient id="linear-gradient" x1="39.16" y1="33.96" x2="49.45" y2="33.96" gradientUnits="userSpaceOnUse"><stop offset="0" stop-color="#5bb4f6"/><stop offset="0.61" stop-color="#2191e5"/><stop offset="1" stop-color="#007edb"/></linearGradient><linearGradient id="linear-gradient-2" x1="26.86" y1="33.96" x2="37.12" y2="33.96" xlink:href="#linear-gradient"/><linearGradient id="linear-gradient-3" x1="14.54" y1="33.96" x2="24.82" y2="33.96" xlink:href="#linear-gradient"/><linearGradient id="linear-gradient-4" x1="3.4" y1="32" x2="60.6" y2="32" xlink:href="#linear-gradient"/><linearGradient id="linear-gradient-5" x1="21.47" y1="17.35" x2="24.02" y2="17.35" xlink:href="#linear-gradient"/><linearGradient id="linear-gradient-6" x1="28.2" y1="16.24" x2="31.23" y2="16.24" xlink:href="#linear-gradient"/><linearGradient id="linear-gradient-7" x1="32.84" y1="14.41" x2="35.02" y2="14.41" xlink:href="#linear-gradient"/><linearGradient id="linear-gradient-8" x1="38.22" y1="16.79" x2="40.52" y2="16.79" xlink:href="#linear-gradient"/><linearGradient id="linear-gradient-9" x1="34.55" y1="18.26" x2="36.36" y2="18.26" xlink:href="#linear-gradient"/><linearGradient id="linear-gradient-10" x1="24.9" y1="22.05" x2="28.42" y2="22.05" xlink:href="#linear-gradient"/><linearGradient id="linear-gradient-11" x1="20.37" y1="23.36" x2="22.55" y2="23.36" xlink:href="#linear-gradient"/><linearGradient id="linear-gradient-12" x1="17.32" y1="26.88" x2="18.89" y2="26.88" xlink:href="#linear-gradient"/><linearGradient id="linear-gradient-13" x1="31.4" y1="25.78" x2="34.04" y2="25.78" xlink:href="#linear-gradient"/><linearGradient id="linear-gradient-14" x1="44.45" y1="21.2" x2="46.63" y2="21.2" xlink:href="#linear-gradient"/><linearGradient id="linear-gradient-15" x1="39.93" y1="22.05" x2="42.35" y2="22.05" xlink:href="#linear-gradient"/><linearGradient id="linear-gradient-16" x1="38.77" y1="25.78" x2="42.35" y2="25.78" xlink:href="#linear-gradient"/><linearGradient id="linear-gradient-17" x1="45.67" y1="26.63" x2="47.48" y2="26.63" xlink:href="#linear-gradient"/><linearGradient id="linear-gradient-18" x1="26.06" y1="26.2" x2="28.54" y2="26.2" xlink:href="#linear-gradient"/></defs><g id="Layer_3" data-name="Layer 3"><path class="cls-1" d="M47.06,33.91a4.71,4.71,0,0,0-5.51,0,6,6,0,0,1-2.39,1H49.45A6,6,0,0,1,47.06,33.91Z"/><path class="cls-2" d="M34.74,33.91a4.69,4.69,0,0,0-5.5,0,6,6,0,0,1-2.38,1H37.12A6,6,0,0,1,34.74,33.91Z"/><path class="cls-3" d="M22.44,33.91A4.4,4.4,0,0,0,19.68,33a4.37,4.37,0,0,0-2.75.89,6,6,0,0,1-2.39,1H24.82A6,6,0,0,1,22.44,33.91Z"/><path class="cls-4" d="M32,3.4h0A28.59,28.59,0,0,0,3.4,32h0A28.59,28.59,0,0,0,32,60.6h0A28.59,28.59,0,0,0,60.6,32h0A28.59,28.59,0,0,0,32,3.4Zm0,6.72A19.9,19.9,0,0,1,51.88,30a.6.6,0,0,1-.6.6H12.72a.6.6,0,0,1-.6-.6A19.9,19.9,0,0,1,32,10.12ZM51.88,45.65a4.24,4.24,0,0,1-4.23,4.23H16.35a4.24,4.24,0,0,1-4.23-4.23v-1.3a.6.6,0,0,1,.6-.6H51.28a.6.6,0,0,1,.6.6Zm2.32-3.47a10.81,10.81,0,0,1-1-.57,4.68,4.68,0,0,0-5.52,0,6,6,0,0,1-6.81,0,4.67,4.67,0,0,0-5.51,0,6,6,0,0,1-6.8,0,4.65,4.65,0,0,0-5.5,0,6,6,0,0,1-6.81,0,4.73,4.73,0,0,0-5.51,0c-.48.27-1.34,1.06-1.77.29s.69-.95,1.12-1.3a6,6,0,0,1,6.81,0,4.37,4.37,0,0,0,2.75.89,4.4,4.4,0,0,0,2.76-.89,5.85,5.85,0,0,1,6.8,0,4.69,4.69,0,0,0,5.5,0,6,6,0,0,1,6.81,0,4.76,4.76,0,0,0,5.51,0,5.57,5.57,0,0,1,3.4-1.09c2.27,0,2.84.84,4.27,1.59A.6.6,0,0,1,54.2,42.18Zm.52-8.77c-1.17.6-1.74,1.28-3.36,1.51a.59.59,0,0,1,.52.59v3.34a.6.6,0,0,1-.6.6H12.72a.6.6,0,0,1-.6-.6V35.51a.59.59,0,0,1,.52-.59C11,34.7,10.45,34,9.28,33.41a.6.6,0,0,1,.51-1.08,10,10,0,0,1,1,.57,4.37,4.37,0,0,0,2.75.89,4.39,4.39,0,0,0,2.75-.89,6,6,0,0,1,6.81,0,4.69,4.69,0,0,0,5.5,0,6,6,0,0,1,6.8,0,4.37,4.37,0,0,0,2.75.89,4.44,4.44,0,0,0,2.76-.89,6,6,0,0,1,6.81,0,4.39,4.39,0,0,0,2.75.89c1.9,0,2.39-.8,3.75-1.46a.6.6,0,0,1,.79.29A.58.58,0,0,1,54.72,33.41Z"/><path class="cls-5" d="M22.07,18.56a.64.64,0,0,0,.41-.16l1.34-1.22a.59.59,0,0,0,0-.85.6.6,0,0,0-.84,0l-1.35,1.22a.61.61,0,0,0,0,.85A.6.6,0,0,0,22.07,18.56Z"/><path class="cls-6" d="M28.64,16.58l1.83.49.16,0a.6.6,0,0,0,.15-1.18L29,15.42a.6.6,0,0,0-.31,1.16Z"/><path class="cls-7" d="M33.44,15h1a.6.6,0,1,0,0-1.2h-1a.6.6,0,1,0,0,1.2Z"/><path class="cls-8" d="M39.49,17.77a.59.59,0,0,0,.43.17.58.58,0,0,0,.42-.17.59.59,0,0,0,0-.85l-1.1-1.1a.6.6,0,1,0-.85.85Z"/><path class="cls-9" d="M35,19.75a.63.63,0,0,0,.19,0,.6.6,0,0,0,.57-.41l.61-1.84a.58.58,0,0,0-.38-.75.6.6,0,0,0-.76.38L34.58,19A.61.61,0,0,0,35,19.75Z"/><path class="cls-10" d="M25.5,23.2a.57.57,0,0,0,.25-.06L28.07,22A.6.6,0,1,0,27.56,21l-2.32,1.1a.6.6,0,0,0-.29.8A.62.62,0,0,0,25.5,23.2Z"/><path class="cls-11" d="M21.39,24.89a.6.6,0,0,0,.56.39.52.52,0,0,0,.21,0,.6.6,0,0,0,.35-.77l-1-2.63a.6.6,0,0,0-1.13.42Z"/><path class="cls-12" d="M17.92,27.48h.37a.6.6,0,0,0,0-1.2h-.37a.6.6,0,0,0,0,1.2Z"/><path class="cls-13" d="M32,26.38h1.44a.6.6,0,0,0,0-1.2H32a.6.6,0,1,0,0,1.2Z"/><path class="cls-14" d="M45.51,22.35a.6.6,0,0,0,.52.3.67.67,0,0,0,.3-.08.61.61,0,0,0,.22-.82l-1-1.69a.6.6,0,0,0-.82-.22.59.59,0,0,0-.22.82Z"/><path class="cls-15" d="M39.93,22.05a.6.6,0,0,0,.6.6h1.22a.6.6,0,0,0,0-1.2H40.53A.6.6,0,0,0,39.93,22.05Z"/><path class="cls-16" d="M41.75,25.18H39.37a.6.6,0,1,0,0,1.2h2.38a.6.6,0,1,0,0-1.2Z"/><path class="cls-17" d="M46.07,25.21a.6.6,0,0,0-.36.77l.61,1.71a.59.59,0,0,0,.56.4.45.45,0,0,0,.2,0,.59.59,0,0,0,.37-.76l-.61-1.71A.61.61,0,0,0,46.07,25.21Z"/><path class="cls-18" d="M27.61,25.28l-1.29.85a.61.61,0,0,0-.16.84.59.59,0,0,0,.5.26.58.58,0,0,0,.33-.1l1.28-.85a.61.61,0,0,0,.17-.84A.6.6,0,0,0,27.61,25.28Z"/></g></svg>