<?xml version="1.0" encoding="UTF-8" standalone="no"?> <svg xmlns="http://www.w3.org/2000/svg" xmlns:xlink="http://www.w3.org/1999/xlink" viewBox="0 0 64 64"><defs><style>.cls-1{fill:url(#linear-gradient);}.cls-2{fill:#fff;}</style><linearGradient id="linear-gradient" x1="3.25" y1="32" x2="60.75" y2="32" gradientUnits="userSpaceOnUse"><stop offset="0" stop-color="#5bb4f6"/><stop offset="0.61" stop-color="#2191e5"/><stop offset="1" stop-color="#007edb"/></linearGradient></defs><g id="Layer_3" data-name="Layer 3"><circle class="cls-1" cx="32" cy="32" r="28.75"/><path class="cls-2" d="M51.38,20.53a2.87,2.87,0,0,0-2.82-.12L42,23.68V19.83a2.89,2.89,0,0,0-2.9-2.89h-25a2.89,2.89,0,0,0-2.89,2.89V44a2.89,2.89,0,0,0,2.89,2.89h25A2.89,2.89,0,0,0,42,44V40.26l6.52,3.28A2.9,2.9,0,0,0,52.75,41V23A2.87,2.87,0,0,0,51.38,20.53ZM40.54,44a1.4,1.4,0,0,1-1.4,1.39h-25A1.39,1.39,0,0,1,12.75,44V19.83a1.39,1.39,0,0,1,1.39-1.39h25a1.4,1.4,0,0,1,1.4,1.39Zm10.71-3a1.39,1.39,0,0,1-2,1.25L42,38.58V25.36l7.19-3.61a1.39,1.39,0,0,1,2,1.24Z"/></g></svg>