<?xml version="1.0" encoding="UTF-8" standalone="no"?> <svg xmlns="http://www.w3.org/2000/svg" xmlns:xlink="http://www.w3.org/1999/xlink" viewBox="0 0 64 64"><defs><style>.cls-1{fill:url(#linear-gradient);}.cls-2{fill:#fff;}</style><linearGradient id="linear-gradient" x1="3.25" y1="32" x2="60.75" y2="32" gradientUnits="userSpaceOnUse"><stop offset="0" stop-color="#5bb4f6"/><stop offset="0.61" stop-color="#2191e5"/><stop offset="1" stop-color="#007edb"/></linearGradient></defs><g id="Layer_50" data-name="Layer 50"><circle class="cls-1" cx="32" cy="32" r="28.75"/><path class="cls-2" d="M47,14.86H17.05a3.76,3.76,0,0,0-3.75,3.75V45.39a3.76,3.76,0,0,0,3.75,3.75H47a3.76,3.76,0,0,0,3.75-3.75V18.61A3.76,3.76,0,0,0,47,14.86Zm0,32.78H17.05a2.25,2.25,0,0,1-2.25-2.25v-.91h2.75a.75.75,0,1,0,0-1.5H14.8V21h2.75a.75.75,0,0,0,0-1.5H14.8v-.91a2.25,2.25,0,0,1,2.25-2.25H47a2.25,2.25,0,0,1,2.25,2.25v.91H46.45a.75.75,0,0,0,0,1.5H49.2V43H46.45a.75.75,0,0,0,0,1.5H49.2v.91A2.25,2.25,0,0,1,47,47.64Z"/><path class="cls-2" d="M26.85,24a.74.74,0,0,0-.37.65V39.34a.74.74,0,0,0,.75.75.69.69,0,0,0,.37-.1l12.72-7.34a.76.76,0,0,0,0-1.3L27.6,24A.77.77,0,0,0,26.85,24ZM28,26l10.46,6L28,38Z"/><path class="cls-2" d="M40.67,43H34.89a.75.75,0,0,0,0,1.5h5.78a.75.75,0,0,0,0-1.5Z"/><path class="cls-2" d="M29.11,43H23.33a.75.75,0,0,0,0,1.5h5.78a.75.75,0,1,0,0-1.5Z"/><path class="cls-2" d="M23.33,21h5.78a.75.75,0,0,0,0-1.5H23.33a.75.75,0,0,0,0,1.5Z"/><path class="cls-2" d="M40.67,19.52H34.89a.75.75,0,0,0,0,1.5h5.78a.75.75,0,0,0,0-1.5Z"/></g></svg>